<mxfile host="Electron" agent="Mozilla/5.0 (Windows NT 10.0; Win64; x64) AppleWebKit/537.36 (KHTML, like Gecko) draw.io/24.7.17 Chrome/128.0.6613.36 Electron/32.0.1 Safari/537.36" version="24.7.17">
  <diagram name="第 1 页" id="rV9ULkOyMwSeYtQp0t5N">
    <mxGraphModel dx="1420" dy="822" grid="1" gridSize="10" guides="1" tooltips="1" connect="1" arrows="1" fold="1" page="1" pageScale="1" pageWidth="827" pageHeight="1169" math="0" shadow="0">
      <root>
        <mxCell id="0" />
        <mxCell id="1" parent="0" />
        <mxCell id="kUiZ_8dyqul221Agod4o-5" value="&lt;div&gt;&lt;b&gt;&lt;font style=&quot;font-size: 18px;&quot;&gt;堆内存模型&lt;/font&gt;&lt;/b&gt;&lt;/div&gt;&lt;div&gt;&lt;b&gt;&lt;font size=&quot;3&quot;&gt;&lt;br&gt;&lt;/font&gt;&lt;/b&gt;&lt;/div&gt;&lt;div&gt;&lt;br&gt;&lt;/div&gt;&lt;div&gt;&lt;b&gt;&lt;font size=&quot;3&quot;&gt;&lt;br&gt;&lt;/font&gt;&lt;/b&gt;&lt;/div&gt;&lt;div&gt;&lt;b&gt;&lt;font size=&quot;3&quot;&gt;&lt;br&gt;&lt;/font&gt;&lt;/b&gt;&lt;/div&gt;&lt;div&gt;&lt;b&gt;&lt;font size=&quot;3&quot;&gt;&lt;br&gt;&lt;/font&gt;&lt;/b&gt;&lt;/div&gt;&lt;div&gt;&lt;b&gt;&lt;font size=&quot;3&quot;&gt;&lt;br&gt;&lt;/font&gt;&lt;/b&gt;&lt;/div&gt;&lt;div&gt;&lt;b&gt;&lt;font size=&quot;3&quot;&gt;&lt;br&gt;&lt;/font&gt;&lt;/b&gt;&lt;/div&gt;&lt;div&gt;&lt;b&gt;&lt;font size=&quot;3&quot;&gt;&lt;br&gt;&lt;/font&gt;&lt;/b&gt;&lt;/div&gt;&lt;div&gt;&lt;b&gt;&lt;font size=&quot;3&quot;&gt;&lt;br&gt;&lt;/font&gt;&lt;/b&gt;&lt;/div&gt;&lt;div&gt;&lt;b&gt;&lt;font size=&quot;3&quot;&gt;&lt;br&gt;&lt;/font&gt;&lt;/b&gt;&lt;/div&gt;&lt;div&gt;&lt;br&gt;&lt;/div&gt;" style="rounded=0;whiteSpace=wrap;html=1;" vertex="1" parent="1">
          <mxGeometry x="100" y="190" width="610" height="240" as="geometry" />
        </mxCell>
        <mxCell id="kUiZ_8dyqul221Agod4o-12" value="" style="rounded=0;whiteSpace=wrap;html=1;dashed=1;" vertex="1" parent="1">
          <mxGeometry x="120" y="220" width="400" height="180" as="geometry" />
        </mxCell>
        <mxCell id="kUiZ_8dyqul221Agod4o-8" value="Survivor区&lt;div&gt;&lt;br&gt;&lt;/div&gt;&lt;div&gt;&lt;br&gt;&lt;/div&gt;&lt;div&gt;&lt;br&gt;&lt;/div&gt;&lt;div&gt;&lt;br&gt;&lt;/div&gt;&lt;div&gt;&lt;br&gt;&lt;/div&gt;&lt;div&gt;&lt;br&gt;&lt;/div&gt;&lt;div&gt;&lt;br&gt;&lt;/div&gt;&lt;div&gt;&lt;br&gt;&lt;/div&gt;&lt;div&gt;&lt;br&gt;&lt;/div&gt;" style="rounded=0;whiteSpace=wrap;html=1;fillColor=#CCFFCC;" vertex="1" parent="1">
          <mxGeometry x="300" y="232.5" width="210" height="155" as="geometry" />
        </mxCell>
        <mxCell id="kUiZ_8dyqul221Agod4o-15" style="edgeStyle=orthogonalEdgeStyle;rounded=0;orthogonalLoop=1;jettySize=auto;html=1;exitX=1;exitY=0.5;exitDx=0;exitDy=0;entryX=0;entryY=0.5;entryDx=0;entryDy=0;curved=1;" edge="1" parent="1" source="kUiZ_8dyqul221Agod4o-7" target="kUiZ_8dyqul221Agod4o-9">
          <mxGeometry relative="1" as="geometry">
            <Array as="points">
              <mxPoint x="290" y="310" />
              <mxPoint x="290" y="280" />
            </Array>
          </mxGeometry>
        </mxCell>
        <mxCell id="kUiZ_8dyqul221Agod4o-7" value="Eden区&lt;div&gt;（占比8/30）&lt;/div&gt;" style="rounded=0;whiteSpace=wrap;html=1;fillColor=#CCFFCC;" vertex="1" parent="1">
          <mxGeometry x="130" y="280" width="120" height="60" as="geometry" />
        </mxCell>
        <mxCell id="kUiZ_8dyqul221Agod4o-16" style="edgeStyle=orthogonalEdgeStyle;rounded=0;orthogonalLoop=1;jettySize=auto;html=1;exitX=0.25;exitY=1;exitDx=0;exitDy=0;entryX=0.25;entryY=0;entryDx=0;entryDy=0;" edge="1" parent="1" source="kUiZ_8dyqul221Agod4o-9" target="kUiZ_8dyqul221Agod4o-10">
          <mxGeometry relative="1" as="geometry" />
        </mxCell>
        <mxCell id="kUiZ_8dyqul221Agod4o-9" value="S0区&lt;div&gt;（占比1/30）&lt;/div&gt;" style="rounded=0;whiteSpace=wrap;html=1;fillColor=#CCFFCC;" vertex="1" parent="1">
          <mxGeometry x="345" y="260" width="120" height="40" as="geometry" />
        </mxCell>
        <mxCell id="kUiZ_8dyqul221Agod4o-17" style="edgeStyle=orthogonalEdgeStyle;rounded=0;orthogonalLoop=1;jettySize=auto;html=1;exitX=0.75;exitY=0;exitDx=0;exitDy=0;entryX=0.75;entryY=1;entryDx=0;entryDy=0;" edge="1" parent="1" source="kUiZ_8dyqul221Agod4o-10" target="kUiZ_8dyqul221Agod4o-9">
          <mxGeometry relative="1" as="geometry" />
        </mxCell>
        <mxCell id="kUiZ_8dyqul221Agod4o-19" style="edgeStyle=orthogonalEdgeStyle;rounded=0;orthogonalLoop=1;jettySize=auto;html=1;exitX=1;exitY=0.5;exitDx=0;exitDy=0;entryX=0;entryY=0.5;entryDx=0;entryDy=0;curved=1;" edge="1" parent="1" source="kUiZ_8dyqul221Agod4o-10" target="kUiZ_8dyqul221Agod4o-11">
          <mxGeometry relative="1" as="geometry">
            <Array as="points">
              <mxPoint x="520" y="340" />
              <mxPoint x="520" y="310" />
            </Array>
          </mxGeometry>
        </mxCell>
        <mxCell id="kUiZ_8dyqul221Agod4o-10" value="S1区&lt;div&gt;（占比1/30）&lt;/div&gt;" style="rounded=0;whiteSpace=wrap;html=1;fillColor=#CCFFCC;" vertex="1" parent="1">
          <mxGeometry x="345" y="320" width="120" height="40" as="geometry" />
        </mxCell>
        <mxCell id="kUiZ_8dyqul221Agod4o-11" value="&lt;b&gt;老年代&lt;/b&gt;&lt;div&gt;&lt;b&gt;（占比20/30）&lt;/b&gt;&lt;/div&gt;" style="rounded=0;whiteSpace=wrap;html=1;fillColor=#FFE6CC;" vertex="1" parent="1">
          <mxGeometry x="560" y="280" width="120" height="60" as="geometry" />
        </mxCell>
        <mxCell id="kUiZ_8dyqul221Agod4o-14" value="&lt;b&gt;年轻代&lt;/b&gt;&lt;div&gt;&lt;b&gt;（共占比10/30）&lt;/b&gt;&lt;/div&gt;" style="text;html=1;align=center;verticalAlign=middle;whiteSpace=wrap;rounded=0;" vertex="1" parent="1">
          <mxGeometry x="120" y="220" width="90" height="30" as="geometry" />
        </mxCell>
        <mxCell id="kUiZ_8dyqul221Agod4o-18" value="&lt;font style=&quot;font-size: 10px;&quot;&gt;new Math()&lt;/font&gt;&lt;div&gt;&lt;font style=&quot;font-size: 10px;&quot;&gt;标记：0&lt;/font&gt;&lt;/div&gt;" style="ellipse;whiteSpace=wrap;html=1;fillColor=#FF6666;" vertex="1" parent="1">
          <mxGeometry x="220" y="260" width="60" height="40" as="geometry" />
        </mxCell>
        <mxCell id="kUiZ_8dyqul221Agod4o-22" style="edgeStyle=orthogonalEdgeStyle;rounded=0;orthogonalLoop=1;jettySize=auto;html=1;exitX=0;exitY=1;exitDx=0;exitDy=0;entryX=0;entryY=0;entryDx=0;entryDy=0;dashed=1;strokeColor=#FF6666;curved=1;" edge="1" parent="1" source="kUiZ_8dyqul221Agod4o-20" target="kUiZ_8dyqul221Agod4o-21">
          <mxGeometry relative="1" as="geometry" />
        </mxCell>
        <mxCell id="kUiZ_8dyqul221Agod4o-20" value="&lt;font style=&quot;font-size: 10px;&quot;&gt;new Math()&lt;/font&gt;&lt;div&gt;&lt;font style=&quot;font-size: 10px;&quot;&gt;标记：1&lt;/font&gt;&lt;/div&gt;" style="ellipse;whiteSpace=wrap;html=1;fillColor=#FF6666;" vertex="1" parent="1">
          <mxGeometry x="435" y="240" width="60" height="40" as="geometry" />
        </mxCell>
        <mxCell id="kUiZ_8dyqul221Agod4o-23" style="edgeStyle=orthogonalEdgeStyle;rounded=0;orthogonalLoop=1;jettySize=auto;html=1;exitX=1;exitY=0;exitDx=0;exitDy=0;entryX=1;entryY=1;entryDx=0;entryDy=0;dashed=1;strokeColor=#FF6666;curved=1;" edge="1" parent="1" source="kUiZ_8dyqul221Agod4o-21" target="kUiZ_8dyqul221Agod4o-20">
          <mxGeometry relative="1" as="geometry" />
        </mxCell>
        <mxCell id="kUiZ_8dyqul221Agod4o-21" value="&lt;font style=&quot;font-size: 10px;&quot;&gt;new Math()&lt;/font&gt;&lt;div&gt;&lt;font style=&quot;font-size: 10px;&quot;&gt;标记：14&lt;/font&gt;&lt;/div&gt;" style="ellipse;whiteSpace=wrap;html=1;fillColor=#FF6666;" vertex="1" parent="1">
          <mxGeometry x="435" y="340.5" width="60" height="40" as="geometry" />
        </mxCell>
        <mxCell id="kUiZ_8dyqul221Agod4o-24" value="&lt;p style=&quot;line-height: 60%;&quot;&gt;&lt;/p&gt;&lt;div style=&quot;line-height: 0%;&quot;&gt;&lt;b style=&quot;font-size: 8px; color: rgb(255, 102, 102); background-color: initial;&quot;&gt;标记&lt;/b&gt;&lt;/div&gt;&lt;b style=&quot;font-size: 8px; color: rgb(255, 102, 102); background-color: initial;&quot;&gt;loop[1,14]&lt;/b&gt;&lt;p&gt;&lt;/p&gt;" style="text;html=1;align=center;verticalAlign=middle;whiteSpace=wrap;rounded=0;" vertex="1" parent="1">
          <mxGeometry x="435" y="300" width="60" height="25" as="geometry" />
        </mxCell>
        <mxCell id="kUiZ_8dyqul221Agod4o-25" value="&lt;font style=&quot;font-size: 10px;&quot;&gt;new Math()&lt;/font&gt;&lt;div&gt;&lt;font style=&quot;font-size: 10px;&quot;&gt;标记：15&lt;/font&gt;&lt;/div&gt;" style="ellipse;whiteSpace=wrap;html=1;fillColor=#FF6666;" vertex="1" parent="1">
          <mxGeometry x="650" y="260" width="60" height="40" as="geometry" />
        </mxCell>
        <mxCell id="kUiZ_8dyqul221Agod4o-30" style="edgeStyle=orthogonalEdgeStyle;rounded=0;orthogonalLoop=1;jettySize=auto;html=1;exitX=0;exitY=0.5;exitDx=0;exitDy=0;entryX=0.5;entryY=0;entryDx=0;entryDy=0;" edge="1" parent="1" source="kUiZ_8dyqul221Agod4o-26" target="kUiZ_8dyqul221Agod4o-28">
          <mxGeometry relative="1" as="geometry" />
        </mxCell>
        <mxCell id="kUiZ_8dyqul221Agod4o-31" style="edgeStyle=orthogonalEdgeStyle;rounded=0;orthogonalLoop=1;jettySize=auto;html=1;exitX=1;exitY=0.5;exitDx=0;exitDy=0;entryX=0.5;entryY=0;entryDx=0;entryDy=0;" edge="1" parent="1" source="kUiZ_8dyqul221Agod4o-26" target="kUiZ_8dyqul221Agod4o-35">
          <mxGeometry relative="1" as="geometry">
            <mxPoint x="540" y="130" as="targetPoint" />
          </mxGeometry>
        </mxCell>
        <mxCell id="kUiZ_8dyqul221Agod4o-26" value="字节码执行引擎" style="rounded=0;whiteSpace=wrap;html=1;" vertex="1" parent="1">
          <mxGeometry x="354" y="30" width="120" height="60" as="geometry" />
        </mxCell>
        <mxCell id="kUiZ_8dyqul221Agod4o-28" value="Minor GC&lt;div&gt;当年轻代空间不足时回收年轻代空间&lt;/div&gt;" style="rounded=0;whiteSpace=wrap;html=1;" vertex="1" parent="1">
          <mxGeometry x="150" y="130" width="260" height="30" as="geometry" />
        </mxCell>
        <mxCell id="kUiZ_8dyqul221Agod4o-35" value="Full GC/Major GC&lt;div&gt;当老年代&lt;span style=&quot;background-color: initial;&quot;&gt;或方法区空间&lt;/span&gt;&lt;span style=&quot;background-color: initial;&quot;&gt;不足时回收整个堆和可能的方法区&lt;/span&gt;&lt;span style=&quot;background-color: initial;&quot;&gt;空间&lt;/span&gt;&lt;/div&gt;" style="rounded=0;whiteSpace=wrap;html=1;" vertex="1" parent="1">
          <mxGeometry x="420" y="130" width="330" height="30" as="geometry" />
        </mxCell>
        <mxCell id="kUiZ_8dyqul221Agod4o-36" style="edgeStyle=orthogonalEdgeStyle;rounded=0;orthogonalLoop=1;jettySize=auto;html=1;exitX=0.5;exitY=1;exitDx=0;exitDy=0;entryX=0.399;entryY=0.009;entryDx=0;entryDy=0;entryPerimeter=0;" edge="1" parent="1" source="kUiZ_8dyqul221Agod4o-28" target="kUiZ_8dyqul221Agod4o-12">
          <mxGeometry relative="1" as="geometry" />
        </mxCell>
        <mxCell id="kUiZ_8dyqul221Agod4o-39" style="edgeStyle=orthogonalEdgeStyle;rounded=0;orthogonalLoop=1;jettySize=auto;html=1;exitX=0.5;exitY=1;exitDx=0;exitDy=0;entryX=0.797;entryY=0;entryDx=0;entryDy=0;entryPerimeter=0;" edge="1" parent="1" source="kUiZ_8dyqul221Agod4o-35" target="kUiZ_8dyqul221Agod4o-5">
          <mxGeometry relative="1" as="geometry" />
        </mxCell>
        <mxCell id="kUiZ_8dyqul221Agod4o-40" value="方法区&lt;div&gt;（元空间）&lt;/div&gt;" style="rounded=0;whiteSpace=wrap;html=1;" vertex="1" parent="1">
          <mxGeometry x="630" y="30" width="120" height="60" as="geometry" />
        </mxCell>
        <mxCell id="kUiZ_8dyqul221Agod4o-41" style="edgeStyle=orthogonalEdgeStyle;rounded=0;orthogonalLoop=1;jettySize=auto;html=1;exitX=0.817;exitY=0.002;exitDx=0;exitDy=0;entryX=0.5;entryY=1;entryDx=0;entryDy=0;exitPerimeter=0;" edge="1" parent="1" source="kUiZ_8dyqul221Agod4o-35" target="kUiZ_8dyqul221Agod4o-40">
          <mxGeometry relative="1" as="geometry" />
        </mxCell>
      </root>
    </mxGraphModel>
  </diagram>
</mxfile>
